<?xml version="1.0" encoding="UTF-8" standalone="no"?>
<svg
   xmlns:dc="http://purl.org/dc/elements/1.1/"
   xmlns:cc="http://creativecommons.org/ns#"
   xmlns:rdf="http://www.w3.org/1999/02/22-rdf-syntax-ns#"
   xmlns:svg="http://www.w3.org/2000/svg"
   xmlns="http://www.w3.org/2000/svg"
   viewBox="0 0 151.48801 151.48801"
   height="151.48801"
   width="151.48801"
   xml:space="preserve"
   id="svg2"
   version="1.1"><metadata
     id="metadata8"><rdf:RDF><cc:Work
         rdf:about=""><dc:format>image/svg+xml</dc:format><dc:type
           rdf:resource="http://purl.org/dc/dcmitype/StillImage" /></cc:Work></rdf:RDF></metadata><defs
     id="defs6"><clipPath
       id="clipPath18"
       clipPathUnits="userSpaceOnUse"><path
         id="path16"
         d="M 0,113.616 H 113.616 V 0 H 0 Z" /></clipPath></defs><g
     transform="matrix(1.3333333,0,0,-1.3333333,0,151.488)"
     id="g10"><g
       id="g12"><g
         clip-path="url(#clipPath18)"
         id="g14"><g
           transform="translate(44.7565,38.4568)"
           id="g20"><path
             id="path22"
             style="fill:#cd9aff;fill-opacity:1;fill-rule:nonzero;stroke:none"
             d="m 0,0 c -2.167,0 -3.945,1.733 -3.945,4.15 0,2.395 1.778,4.105 3.945,4.105 2.189,0 3.968,-1.71 3.968,-4.105 C 3.968,1.733 2.189,0 0,0 m 0,10.171 c -3.443,0 -6.203,-2.531 -6.203,-6.021 0,-3.511 2.76,-6.066 6.203,-6.066 3.443,0 6.226,2.555 6.226,6.066 0,3.49 -2.783,6.021 -6.226,6.021" /></g><g
           transform="translate(60.4674,41.991)"
           id="g24"><path
             id="path26"
             style="fill:#cd9aff;fill-opacity:1;fill-rule:nonzero;stroke:none"
             d="m 0,0 c 0,-1.71 -1.209,-3.671 -3.079,-3.671 -1.459,0 -2.166,0.912 -2.166,1.847 0,2.121 3.01,2.212 4.675,2.212 l 0.57,0 z m 1.551,-5.177 h 2.075 v 1.894 H 2.69 c -0.319,0 -0.501,0.159 -0.501,0.501 v 4.903 c 0,2.555 -1.003,4.516 -4.744,4.516 -1.117,0 -3.99,-0.274 -3.99,-2.167 V 3.33 h 2.075 v 0.661 c 0,0.753 1.346,0.89 1.893,0.89 1.802,0 2.554,-0.731 2.554,-2.76 V 2.007 h -0.501 c -1.939,0 -6.956,-0.228 -6.956,-3.945 0,-2.303 1.938,-3.512 3.922,-3.512 2.759,0 3.671,2.28 3.671,2.28 h 0.046 c 0,0 -0.046,-0.296 -0.046,-0.684 0,-0.821 0.411,-1.323 1.438,-1.323" /></g><g
           transform="translate(70.2487,38.3426)"
           id="g28"><path
             id="path30"
             style="fill:#cd9aff;fill-opacity:1;fill-rule:nonzero;stroke:none"
             d="m 0,0 c -2.121,0 -3.489,1.71 -3.489,1.71 l -1.14,-1.481 c 0,0 1.527,-2.031 4.607,-2.031 2.417,0 4.241,1.323 4.241,3.375 0,3.855 -6.294,3.375 -6.294,5.565 0,0.912 0.844,1.368 2.143,1.368 0.707,0 1.734,-0.296 1.734,-0.981 V 6.956 H 3.786 V 8.05 c 0,1.756 -2.394,2.235 -3.786,2.235 -2.349,0 -4.287,-1.026 -4.287,-3.238 0,-3.718 6.294,-3.489 6.294,-5.565 C 2.007,0.479 1.072,0 0,0" /></g><g
           transform="translate(79.3463,36.8142)"
           id="g32"><path
             id="path34"
             style="fill:#cd9aff;fill-opacity:1;fill-rule:nonzero;stroke:none"
             d="M 0,0 H 2.167 V 1.894 H 1.231 C 0.912,1.894 0.73,2.053 0.73,2.395 v 7.685 c 0,1.026 -0.433,1.46 -1.459,1.46 h -2.19 V 9.646 h 0.936 c 0.318,0 0.501,-0.159 0.501,-0.5 V 1.46 C -1.482,0.434 -1.049,0 0,0" /></g><g
           transform="translate(87.8288,38.3426)"
           id="g36"><path
             id="path38"
             style="fill:#cd9aff;fill-opacity:1;fill-rule:nonzero;stroke:none"
             d="m 0,0 c -2.121,0 -3.489,1.71 -3.489,1.71 l -1.14,-1.481 c 0,0 1.527,-2.031 4.607,-2.031 2.417,0 4.241,1.323 4.241,3.375 0,3.855 -6.294,3.375 -6.294,5.565 0,0.912 0.844,1.368 2.143,1.368 0.707,0 1.734,-0.296 1.734,-0.981 V 6.956 H 3.786 V 8.05 c 0,1.756 -2.394,2.235 -3.786,2.235 -2.349,0 -4.287,-1.026 -4.287,-3.238 0,-3.718 6.294,-3.489 6.294,-5.565 C 2.007,0.479 1.072,0 0,0" /></g><g
           transform="translate(29.528,47.0808)"
           id="g40"><path
             id="path42"
             style="fill:#cd9aff;fill-opacity:1;fill-rule:nonzero;stroke:none"
             d="m 0,0 c -0.257,-0.564 -0.501,-1.098 -0.782,-1.613 -0.448,-0.823 -0.933,-1.391 -1.526,-1.79 -0.569,-0.385 -1.104,-0.512 -1.733,-0.414 -0.869,0.135 -1.548,0.83 -1.615,1.652 -0.111,1.354 0.716,2.515 2.011,2.82 0.475,0.114 0.965,0.157 1.453,0.157 0.772,0 1.539,-0.111 2.235,-0.234 C 0.106,0.567 0.17,0.554 0.247,0.538 0.163,0.357 0.081,0.178 0,0 M 0.612,2.595 C 0.348,2.654 0.094,2.711 -0.159,2.76 -1.765,3.071 -3.04,3.119 -4.169,2.915 -6.376,2.513 -7.64,1.199 -7.923,-0.992 c -0.128,-0.987 0.105,-1.941 0.69,-2.838 0.835,-1.28 2.02,-2.005 3.624,-2.212 0.194,-0.025 0.384,-0.038 0.571,-0.038 0.924,0 1.756,0.309 2.53,0.939 0.9,0.732 1.632,1.734 2.307,3.154 0.215,0.454 0.412,0.93 0.602,1.39 0.069,0.164 0.136,0.328 0.205,0.493 l 0.403,-0.131 c 0.421,-0.139 0.849,-0.28 1.278,-0.416 l 0.552,-0.176 c 0.825,-0.263 1.679,-0.534 2.519,-0.781 0.293,-0.086 0.568,-0.052 0.773,0.094 0.201,0.145 0.318,0.385 0.33,0.676 C 8.482,-0.269 8.122,0.233 7.544,0.441 7.104,0.6 6.663,0.753 6.223,0.899 5.449,1.157 4.676,1.412 3.895,1.67 L 3.138,1.919 4.98,12.892 c 0.153,0.911 0.348,2.472 0.536,3.982 0.189,1.51 0.383,3.072 0.536,3.978 0.053,0.318 0,0.584 -0.17,0.835 C 5.586,22.125 5.189,22.375 4.734,22.411 4.227,22.453 3.881,22.193 3.794,21.706 3.619,20.728 3.407,19.111 3.202,17.548 2.989,15.926 2.77,14.249 2.587,13.247 2.479,12.655 2.359,12.185 2.209,11.77 1.833,10.725 1.229,9.808 0.361,8.965 -0.189,8.43 -0.96,7.781 -2.037,7.513 -2.468,7.405 -2.988,7.335 -3.572,7.634 c -0.52,0.265 -0.86,0.696 -1.102,1.396 -0.307,0.885 -0.315,1.719 -0.284,2.419 0.088,1.925 1.574,7.633 2.163,9.543 0.133,0.431 0.281,0.854 0.429,1.277 0.103,0.297 0.208,0.594 0.306,0.894 0.166,0.504 -0.162,1.122 -0.763,1.435 -0.326,0.17 -0.713,0.196 -1.009,0.069 -0.2,-0.086 -0.34,-0.235 -0.393,-0.422 -0.143,-0.498 -0.379,-1.334 -0.652,-2.308 -0.449,-0.875 -1.202,-2.006 -2.418,-3.025 -2.29,-1.92 -5.436,-1.494 -5.48,-1.486 -0.568,0.083 -1.099,-0.307 -1.186,-0.875 -0.086,-0.57 0.306,-1.101 0.875,-1.188 0.053,-0.008 0.485,-0.071 1.148,-0.071 1.368,0 3.711,0.269 5.725,1.818 C -6.451,16.238 -6.654,15.489 -6.778,15.013 -7.213,13.353 -7.384,11.935 -7.315,10.55 -7.246,9.13 -6.835,7.906 -6.06,6.809 -5.563,6.106 -4.92,5.622 -4.146,5.367 -3.304,5.09 -2.529,5.142 -1.818,5.24 -0.58,5.41 0.541,5.885 1.52,6.65 L 0.809,2.551 Z" /></g><g
           transform="translate(48.1481,61.2771)"
           id="g44"><path
             id="path46"
             style="fill:#cd9aff;fill-opacity:1;fill-rule:nonzero;stroke:none"
             d="m 0,0 c -0.272,-0.062 -0.538,-0.096 -0.795,-0.096 -1.75,0 -2.374,0.568 -2.567,2.337 -0.052,0.476 0.061,0.863 0.347,1.183 0.43,0.478 1.181,0.729 1.701,0.729 1.761,0 1.875,-1.039 1.918,-1.43 C 0.697,1.863 0.452,0.932 0,0 m -6.191,-6.723 c -0.977,0.814 -3.506,3.576 -3.877,6.968 -0.121,1.111 0.274,2.424 0.963,3.192 0.426,0.475 0.929,0.716 1.496,0.716 1.207,0 1.763,-0.677 1.982,-1.061 C -5.684,2.74 -5.692,2.371 -5.65,1.99 c 0.294,-2.695 1.643,-4.126 4.116,-4.355 -1.603,-2.008 -3.673,-3.725 -4.657,-4.358 m 61.729,-10.43 c -0.609,0.184 -1.251,-0.16 -1.434,-0.769 -2.824,-9.335 -8.691,-17.726 -16.522,-23.629 -8.093,-6.101 -17.743,-9.326 -27.908,-9.326 -25.589,0 -46.408,20.818 -46.408,46.408 0,25.59 20.819,46.408 46.408,46.408 16.636,0 32.095,-8.987 40.344,-23.455 0.006,-0.011 0.015,-0.019 0.021,-0.03 1.447,-2.665 4.013,-8.456 4.013,-16.007 0,-5.056 -3.628,-7.896 -5.859,-8.847 -0.063,-0.02 -0.13,-0.043 -0.2,-0.077 -0.037,-0.017 -0.079,-0.033 -0.117,-0.05 -0.435,-0.16 -0.799,-0.241 -1.044,-0.241 -0.129,0 -0.25,-0.026 -0.365,-0.065 -0.038,0.002 -0.072,-0.004 -0.112,0 -0.437,0.036 -0.723,0.257 -0.786,0.607 -0.063,0.36 -0.06,0.709 0.01,0.985 0.124,0.496 0.281,0.992 0.433,1.471 0.092,0.29 0.183,0.58 0.269,0.873 l 0.291,0.988 c 0.355,1.201 0.722,2.442 1.049,3.679 0.252,0.952 0.232,1.831 -0.061,2.688 C 47.24,5.39 46.604,6.039 45.67,6.387 45.008,6.633 44.332,6.723 43.652,6.651 42.637,6.544 41.886,6.083 41.346,5.695 39.972,4.706 38.966,3.414 38.164,2.28 38.112,2.208 38.063,2.135 38.012,2.063 l 0.93,4.593 c 0.418,2.057 0.539,2.64 0.658,3.213 0.12,0.58 0.237,1.151 0.661,3.238 l 0.033,0.162 c 0.161,0.793 0.322,1.587 0.478,2.382 0.111,0.567 -0.186,1.138 -0.757,1.455 -0.394,0.217 -0.783,0.258 -1.097,0.114 -0.272,-0.125 -0.458,-0.379 -0.527,-0.716 -0.426,-2.079 -2.14,-10.472 -3.18,-15.582 -0.058,-0.284 -0.11,-0.57 -0.163,-0.856 -0.123,-0.664 -0.249,-1.35 -0.441,-1.99 -0.482,-1.62 -1.521,-2.982 -3.088,-4.047 -0.732,-0.497 -1.421,-0.747 -2.171,-0.785 -0.786,-0.042 -1.385,0.26 -1.872,0.945 -0.35,0.495 -0.468,1.014 -0.542,1.5 -0.166,1.075 -0.062,2.063 0.062,2.888 0.305,2.03 2.816,9.572 3.538,11.462 0.013,0.012 0.062,0.031 0.099,0.031 0.999,0.009 2.856,0.026 3.922,-0.002 0.329,-0.006 0.626,0.127 0.81,0.363 0.174,0.223 0.227,0.505 0.146,0.794 -0.169,0.611 -0.892,1.132 -1.52,1.098 -0.428,-0.025 -1.314,-0.018 -1.962,-0.012 -0.245,0.002 -0.464,0.004 -0.625,0.004 h -0.016 l 0.601,1.789 c 0.17,0.5 0.34,0.999 0.496,1.504 0.145,0.465 -0.084,0.972 -0.595,1.324 -0.501,0.345 -1.073,0.381 -1.423,0.091 -0.181,-0.149 -0.28,-0.354 -0.33,-0.5 -0.482,-1.374 -0.952,-2.752 -1.417,-4.134 -0.022,-0.062 -0.033,-0.079 -0.149,-0.078 -1.165,0.009 -5.684,0.007 -6.793,0 -0.194,-0.002 -0.378,-0.045 -0.518,-0.123 -0.215,-0.12 -0.362,-0.322 -0.412,-0.569 -0.048,-0.234 -0.005,-0.488 0.122,-0.715 0.288,-0.517 0.799,-0.827 1.366,-0.827 0.646,-10e-4 3.377,-10e-4 4.931,-10e-4 h 0.696 C 27.95,10.033 27.938,9.992 27.926,9.952 27.824,9.632 27.656,9.117 27.448,8.478 26.546,5.7 24.865,0.529 24.583,-0.95 24.49,-1.437 24.38,-1.955 24.197,-2.431 c -0.394,-1.036 -1.038,-1.952 -1.967,-2.8 -0.629,-0.577 -1.422,-1.197 -2.524,-1.436 -0.371,-0.081 -0.773,-0.097 -1.138,-0.045 -0.995,0.143 -1.455,1.012 -1.641,1.517 -0.307,0.835 -0.323,1.647 -0.299,2.33 0.046,1.254 0.26,2.525 0.634,3.776 0.297,0.99 0.635,1.982 0.964,2.94 0.127,0.375 0.255,0.75 0.381,1.125 0.184,0.547 -0.115,1.138 -0.744,1.472 C 17.52,6.63 17.131,6.671 16.82,6.557 16.601,6.476 16.435,6.32 16.354,6.118 16.249,5.852 16.156,5.581 16.064,5.309 15.961,5.004 15.854,4.69 15.729,4.394 14.825,2.229 13.57,-0.593 11.879,-3.222 11.38,-4 10.688,-4.998 9.765,-5.822 9.322,-6.217 8.814,-6.6 8.096,-6.726 7.769,-6.783 7.621,-6.692 7.504,-6.367 7.287,-5.768 7.298,-5.203 7.342,-4.682 7.667,-0.812 8.437,2.199 9.765,4.792 9.927,5.107 9.913,5.456 9.728,5.799 9.507,6.209 9.151,6.472 8.7,6.558 8.205,6.651 7.837,6.522 7.603,6.175 7.4,5.875 7.213,5.554 7.037,5.213 6.115,4.167 4.533,2.574 2.855,1.404 2.935,1.94 2.947,2.463 2.892,2.973 2.653,5.153 1.081,6.455 -1.314,6.455 c -0.866,0 -2.151,-0.321 -3.12,-1.199 -0.662,0.632 -1.673,1.199 -3.175,1.199 -1.231,0 -2.341,-0.513 -3.21,-1.481 -1.127,-1.258 -1.731,-3.212 -1.538,-4.979 0.527,-4.813 4.692,-9.175 6.127,-9.175 1.138,0 4.329,2.895 5.72,4.447 0.872,0.972 1.579,1.92 2.12,2.84 1.386,0.545 2.741,1.466 3.915,2.433 C 5.486,0.359 5.446,0.177 5.409,-0.001 5.341,-0.324 5.273,-0.646 5.202,-0.967 4.974,-2 4.826,-3.532 4.844,-4.691 4.885,-7.462 6.31,-8.988 8.884,-8.988 H 8.89 c 0.783,0.121 1.484,0.433 2.208,0.983 0.933,0.708 1.775,1.64 2.651,2.93 0.154,0.227 0.306,0.456 0.462,0.693 0.182,-1.122 0.442,-1.799 1.005,-2.678 0.722,-1.128 1.72,-1.776 2.965,-1.927 0.732,-0.088 1.47,-0.045 2.319,0.138 1.668,0.361 3.022,1.157 4.142,2.432 l 0.287,0.33 c 0.253,-0.587 0.555,-1.082 0.925,-1.515 0.779,-0.916 1.789,-1.393 2.998,-1.419 1.739,-0.036 3.256,0.407 4.639,1.359 -10e-4,-0.507 0.353,-0.993 0.922,-1.241 0.331,-0.145 0.66,-0.162 0.927,-0.051 0.219,0.091 0.382,0.261 0.472,0.491 0.073,0.189 0.133,0.383 0.194,0.577 l 0.08,0.253 c 1.102,3.377 2.781,6.546 4.987,9.42 0.891,1.16 1.747,1.965 2.694,2.532 0.218,0.131 0.507,0.231 0.861,0.298 0.193,0.036 0.355,-0.064 0.409,-0.256 0.117,-0.422 0.173,-0.795 0.164,-1.107 -0.028,-0.979 -0.271,-1.899 -0.53,-2.747 -0.173,-0.57 -0.354,-1.137 -0.533,-1.705 -0.26,-0.817 -0.529,-1.662 -0.772,-2.503 -0.257,-0.884 -0.47,-1.854 -0.295,-2.948 0.174,-1.083 1.135,-2.041 2.287,-2.278 0.394,-0.08 0.77,-0.111 1.122,-0.111 0.03,0 0.056,0.002 0.084,0.003 0.086,-0.021 0.175,-0.035 0.268,-0.035 2.848,0 9.522,3.919 9.522,11.517 0,11.185 -5.178,18.636 -5.398,18.947 -0.005,0.006 -0.01,0.01 -0.015,0.016 -8.882,14.132 -24.503,22.831 -41.267,22.831 -26.859,0 -48.71,-21.851 -48.71,-48.71 0,-26.859 21.851,-48.71 48.71,-48.71 10.669,0 20.799,3.385 29.295,9.789 8.217,6.196 14.375,15.003 17.338,24.802 0.183,0.609 -0.161,1.251 -0.769,1.435" /></g></g></g></g></svg>